{"title":"Captain America The First Avenger 2011 CAM Xvid UnKnOwN","uid":6563782,"size":1078285180,"categoryP":"video","categoryS":"movies","magnet":"?xt=urn:btih:1ddfd2a84426c29c0a5e125ac0ac10102641315d&amp;dn=Captain+America+The+First+Avenger+2011+CAM+Xvid+UnKnOwN&amp;tr=udp%3A%2F%2Ftracker.openbittorrent.com%3A80&amp;tr=udp%3A%2F%2Fopen.demonii.com%3A1337&amp;tr=udp%3A%2F%2Ftracker.coppersurfer.tk%3A6969&amp;tr=udp%3A%2F%2Fexodus.desync.com%3A6969","seeders":6,"leechers":0,"uploader":"HeroMaster","files":-1,"time":1311590343,"description":"::::: UnKnOwN Presents :::::\n\n\n:::: Captain America 2011 CAM ::::\n\n\n::Notes::\n\n\nEncoded By .......:UnKnOwN\n\nRuntime ..........:1:54\n\nIMDb URL .........:http://www.imdb.com/title/tt0458339/\n\nLanguage .........:English\n\nFile Size ........:1.01gb\n\nRelease Date ......... 2011\n\nSource ......... Erdna\n\nFile Type ......... Single AVI\n\nPS3 Compatible ....... Go find out\n\nGenre ......... Action/Scifi\n\n\n\n::Video::\n\n\nID : 0\n\nFormat : MPEG-4 Visual\n\nFormat profile : Advanced Simple@L5\n\nFormat settings, BVOP : Yes\n\nFormat settings, QPel : No\n\nFormat settings, GMC : No warppoints\n\nFormat settings, Matrix : Custom\n\nCodec ID : XVID\n\nCodec ID/Hint : XviD\n\nDuration : 1h 54mn\n\nBit rate : 1 380 Kbps\n\nWidth : 640pixels\n\nHeight : 280 pixels\n\nDisplay aspect ratio : 2.25.1\n\nFrame rate : 29.997 fps\n\nColor space : YUV\n\nChroma subsampling : 4:2:0\n\nBit depth : 8 bits\n\nScan type : Progressive\n\nBits/(Pixel*Frame) : 0.234\n\nStream size : 892 MiB (86)\n\nWriting library : XviD 1.2.1 (UTC 2008-12-04)\n\n\n\n::Audio::\n\n\nID : 1\n\nFormat : MPEG-Audio\n\nFormat/Info : Version 1\n\nMode extension : Layer 3\n\nCodec ID : 55\n\nDuration : 1h 54mn\n\nBit rate mode : Constant\n\nBit rate : 128 Kbps\n\nChannel(s) : 2 channels\n\nChannel positions : Front: L R\n\nSampling rate : 48.0 KHz\n\nBit depth : 16 bits\n\nStream size : 302 MiB\n\nAlignment : Aligned on interleaves\n\nInterleave, duration : 42 ms (1.00 video frame)\n\nInterleave, preload duration : 512 ms\n\n\n\n::SYSPNOSIS::\n\n\nAfter being deemed unfit for military service, Steve Rogers volunteers for\n\na top secret research project that turns him into Captain America, a\n\nsuperhero dedicated to defending America's ideals.\n\n\n\n::RELEASE INFO::\n\n\nCorrected A/R, cropped first 40 seconds of shaking,adjusted colors was to red,\n\ndenoiser,sharpen CM bla bla,Audio cleaned and muxed back very watchable cam\n\nSample included \n\n\n\n::More Information::\n\n &lt;a href=&quot;\nhttp://leetleech.org/images/66362883595965970375.png&quot; rel=&quot;nofollow&quot; target=&quot;_NEW&quot;&gt;\nhttp://leetleech.org/images/66362883595965970375.png&lt;/a&gt;\n\n\n\n::Screens::\n\n &lt;a href=&quot;\nhttp://leetleech.org/images/86660646505515519802.png&quot; rel=&quot;nofollow&quot; target=&quot;_NEW&quot;&gt;\nhttp://leetleech.org/images/86660646505515519802.png&lt;/a&gt;\n &lt;a href=&quot;\nhttp://leetleech.org/images/49109966126055808740.png&quot; rel=&quot;nofollow&quot; target=&quot;_NEW&quot;&gt;\nhttp://leetleech.org/images/49109966126055808740.png&lt;/a&gt;\n &lt;a href=&quot;\nhttp://leetleech.org/images/30229991320210957877.png&quot; rel=&quot;nofollow&quot; target=&quot;_NEW&quot;&gt;\nhttp://leetleech.org/images/30229991320210957877.png&lt;/a&gt;\n\n\nENJOY!","torrent":{"xt":"urn:btih:1ddfd2a84426c29c0a5e125ac0ac10102641315d","amp;dn":"Captain+America+The+First+Avenger+2011+CAM+Xvid+UnKnOwN","amp;tr":["udp%3A%2F%2Ftracker.openbittorrent.com%3A80","udp%3A%2F%2Fopen.demonii.com%3A1337","udp%3A%2F%2Ftracker.coppersurfer.tk%3A6969","udp%3A%2F%2Fexodus.desync.com%3A6969"],"infoHash":"1ddfd2a84426c29c0a5e125ac0ac10102641315d","infoHashBuffer":{"type":"Buffer","data":[29,223,210,168,68,38,194,156,10,94,18,90,192,172,16,16,38,65,49,93]},"announce":[],"urlList":[]}}